<mxfile host="65bd71144e">
    <diagram id="kfqbYSQvsbw34wrSjgwR" name="Page-1">
        <mxGraphModel dx="1174" dy="787" grid="1" gridSize="10" guides="1" tooltips="1" connect="1" arrows="1" fold="1" page="1" pageScale="1" pageWidth="850" pageHeight="1100" math="0" shadow="0">
            <root>
                <mxCell id="0"/>
                <mxCell id="1" parent="0"/>
                <mxCell id="171" value="" style="endArrow=none;html=1;rounded=0;endFill=0;startArrow=none;" edge="1" parent="1">
                    <mxGeometry width="50" height="50" relative="1" as="geometry">
                        <mxPoint x="50" y="410" as="sourcePoint"/>
                        <mxPoint x="770" y="410" as="targetPoint"/>
                    </mxGeometry>
                </mxCell>
                <UserObject label="Upload Shareable Data Package to Repository" link="#upload-your-shareable-data-package-to-your-repository" id="172">
                    <mxCell style="rounded=0;whiteSpace=wrap;html=1;fillColor=#532565;fontColor=#F0F0F0;fontStyle=1;glass=0;fontSize=13;strokeColor=#532565;" vertex="1" parent="1">
                        <mxGeometry x="650" y="378" width="124" height="63" as="geometry"/>
                    </mxCell>
                </UserObject>
                <UserObject label="Copy over files to share" link="#copy-files-that-meet-sharing-requirements-into-your-shareable-data-package-folder" id="173">
                    <mxCell style="rounded=0;whiteSpace=wrap;html=1;fillColor=#982568;fontColor=#0F0F0F;fontStyle=1;opacity=50;" vertex="1" parent="1">
                        <mxGeometry x="180" y="301" width="130" height="50" as="geometry"/>
                    </mxCell>
                </UserObject>
                <mxCell id="174" value="" style="endArrow=none;html=1;fontColor=#0F0F0F;rounded=0;" edge="1" parent="1">
                    <mxGeometry width="50" height="50" relative="1" as="geometry">
                        <mxPoint x="95" y="411" as="sourcePoint"/>
                        <mxPoint x="95" y="351" as="targetPoint"/>
                    </mxGeometry>
                </mxCell>
                <mxCell id="175" value="" style="endArrow=none;html=1;fontColor=#0F0F0F;rounded=0;" edge="1" parent="1">
                    <mxGeometry width="50" height="50" relative="1" as="geometry">
                        <mxPoint x="244.5" y="411" as="sourcePoint"/>
                        <mxPoint x="244.5" y="351" as="targetPoint"/>
                    </mxGeometry>
                </mxCell>
                <mxCell id="176" value="" style="endArrow=none;html=1;fontColor=#0F0F0F;rounded=0;" edge="1" parent="1">
                    <mxGeometry width="50" height="50" relative="1" as="geometry">
                        <mxPoint x="198" y="471" as="sourcePoint"/>
                        <mxPoint x="198" y="411" as="targetPoint"/>
                    </mxGeometry>
                </mxCell>
                <mxCell id="177" value="" style="endArrow=none;html=1;fontColor=#0F0F0F;rounded=0;" edge="1" parent="1">
                    <mxGeometry width="50" height="50" relative="1" as="geometry">
                        <mxPoint x="390" y="350" as="sourcePoint"/>
                        <mxPoint x="390" y="410" as="targetPoint"/>
                    </mxGeometry>
                </mxCell>
                <UserObject label="Set yourself up for success" link="#set-yourself-up-for-success" id="178">
                    <mxCell style="rounded=0;whiteSpace=wrap;html=1;fillColor=#982568;fontColor=#0F0F0F;fontStyle=1;opacity=50;" vertex="1" parent="1">
                        <mxGeometry x="30" y="301" width="130" height="50" as="geometry"/>
                    </mxCell>
                </UserObject>
                <UserObject label="Review your shareable data package" link="#review-your-shareable-data-package" id="179">
                    <mxCell style="rounded=0;whiteSpace=wrap;html=1;fillColor=#982568;fontColor=#0F0F0F;fontStyle=1;opacity=50;" vertex="1" parent="1">
                        <mxGeometry x="330" y="301" width="130" height="50" as="geometry"/>
                    </mxCell>
                </UserObject>
                <UserObject label="Identify resources that meet sharing requirements" link="#identify-resources-and-standard-data-package-metadata-that-meet-sharing-requirements" id="180">
                    <mxCell style="rounded=0;whiteSpace=wrap;html=1;fillColor=#982568;fontColor=#0F0F0F;fontStyle=1;opacity=50;" vertex="1" parent="1">
                        <mxGeometry x="130" y="471" width="130" height="50" as="geometry"/>
                    </mxCell>
                </UserObject>
                <UserObject label="Prepare Resource Tracker and Results Tracker(s)" link="#prepare-resource-and-results-trackers" id="181">
                    <mxCell style="rounded=0;whiteSpace=wrap;html=1;fillColor=#982568;fontColor=#0F0F0F;fontStyle=1;opacity=50;" vertex="1" parent="1">
                        <mxGeometry x="285" y="471" width="130" height="50" as="geometry"/>
                    </mxCell>
                </UserObject>
                <mxCell id="182" value="" style="endArrow=none;html=1;fontColor=#0F0F0F;rounded=0;" edge="1" parent="1">
                    <mxGeometry width="50" height="50" relative="1" as="geometry">
                        <mxPoint x="345" y="471" as="sourcePoint"/>
                        <mxPoint x="345" y="411" as="targetPoint"/>
                    </mxGeometry>
                </mxCell>
                <mxCell id="183" value="" style="endArrow=none;html=1;fontColor=#0F0F0F;rounded=0;" edge="1" parent="1">
                    <mxGeometry width="50" height="50" relative="1" as="geometry">
                        <mxPoint x="543" y="411" as="sourcePoint"/>
                        <mxPoint x="543" y="351" as="targetPoint"/>
                    </mxGeometry>
                </mxCell>
                <UserObject label="&lt;b&gt;Prepare other materials for submission&lt;/b&gt;" link="#prepare-other-materials-for-submission" id="184">
                    <mxCell style="swimlane;fontStyle=0;childLayout=stackLayout;horizontal=1;startSize=50;horizontalStack=0;resizeParent=1;resizeParentMax=0;resizeLast=0;collapsible=1;marginBottom=0;whiteSpace=wrap;html=1;rounded=0;shadow=0;glass=0;fillColor=#982568;gradientColor=none;gradientDirection=radial;opacity=50;swimlaneLine=1;" vertex="1" collapsed="1" parent="1">
                        <mxGeometry x="435" y="471" width="130" height="50" as="geometry">
                            <mxRectangle x="425" y="461" width="190" height="110" as="alternateBounds"/>
                        </mxGeometry>
                    </mxCell>
                </UserObject>
                <mxCell id="185" value="Overview Resource Tracker" style="text;strokeColor=default;fillColor=#FFFFFF;align=center;verticalAlign=middle;spacingLeft=4;spacingRight=4;overflow=hidden;points=[[0,0.5],[1,0.5]];portConstraint=eastwest;rotatable=0;whiteSpace=wrap;html=1;rounded=0;shadow=0;glass=0;" vertex="1" parent="184">
                    <mxGeometry y="50" width="190" height="30" as="geometry"/>
                </mxCell>
                <mxCell id="186" value="&lt;span style=&quot;font-weight: 400;&quot;&gt;README&lt;/span&gt;" style="text;strokeColor=default;fillColor=#FFFFFF;align=center;verticalAlign=middle;spacingLeft=4;spacingRight=4;overflow=hidden;points=[[0,0.5],[1,0.5]];portConstraint=eastwest;rotatable=0;whiteSpace=wrap;html=1;rounded=0;shadow=0;glass=0;fontStyle=1" vertex="1" parent="184">
                    <mxGeometry y="80" width="190" height="30" as="geometry"/>
                </mxCell>
                <mxCell id="187" value="" style="endArrow=none;html=1;fontColor=#0F0F0F;rounded=0;" edge="1" parent="1">
                    <mxGeometry width="50" height="50" relative="1" as="geometry">
                        <mxPoint x="500" y="471" as="sourcePoint"/>
                        <mxPoint x="500" y="411" as="targetPoint"/>
                    </mxGeometry>
                </mxCell>
                <UserObject label="Zip up your shareable data package" link="#zip-up-your-shareable-data-package" id="188">
                    <mxCell style="rounded=0;whiteSpace=wrap;html=1;fillColor=#982568;fontColor=#0F0F0F;fontStyle=1;opacity=50;" vertex="1" parent="1">
                        <mxGeometry x="480" y="301" width="130" height="50" as="geometry"/>
                    </mxCell>
                </UserObject>
                <UserObject label="&lt;font color=&quot;#ffffff&quot; style=&quot;font-size: 13px;&quot;&gt;&lt;b style=&quot;font-size: 13px;&quot;&gt;Create Managed-Access By Date Shareable Data Package&lt;/b&gt;&lt;/font&gt;" id="189">
                    <mxCell style="shape=singleArrow;whiteSpace=wrap;html=1;arrowWidth=0.6;arrowSize=0.042105263157894736;fillColor=#532565;strokeColor=#532565;fontSize=13;labelBorderColor=none;" vertex="1" parent="1">
                        <mxGeometry x="50" y="391" width="540" height="40" as="geometry"/>
                    </mxCell>
                </UserObject>
            </root>
        </mxGraphModel>
    </diagram>
</mxfile>